<svg width="127" height="99" viewBox="0 0 127 99" fill="none" xmlns="http://www.w3.org/2000/svg">
<path d="M70.2466 12.735C66.4948 10.7071 61.4124 11.1497 57.2867 12.9175C52.8531 14.8172 50.3122 17.8835 48.7534 20.7208C43.685 29.9448 43.2318 39.5673 43.2318 39.5673C43.2318 39.5673 41.8578 38.4562 39.4899 36.373C38.3437 35.3646 33.0871 30.7401 26.7126 31.0794C25.7991 31.1282 20.5753 31.7326 17.3579 35.7796C13.6868 40.3971 14.8642 46.4305 15.7606 48.7851C19.1831 57.7749 24.1788 62.3356 29.6331 66.4908C34.1971 69.9677 42.6507 75.3988 55.2788 78.1729C45.4237 74.7821 31.689 68.6226 22.8338 56.3146C19.9251 52.2718 16.1536 46.0958 18.1336 40.4799C19.2339 37.3593 22.1321 34.5303 25.6173 33.7263C30.1332 32.6845 34.0398 35.4103 36.2042 36.9206C42.0502 40.9996 44.9657 45.7733 44.9657 45.7733C44.9659 42.7616 45.5031 40.3306 47.1093 33.3154C48.2816 28.1954 50.4168 20.3497 56.4654 16.9332C60.201 14.8232 65.4024 14.0554 69.5839 16.5022C69.6732 16.442 69.7681 16.3865 69.8653 16.3328C69.6444 16.1676 69.4335 15.9893 69.2309 15.8022C69.1458 15.7239 69.0624 15.6438 68.9778 15.565C68.9351 15.5253 68.7247 15.3475 68.9093 15.4897C68.6236 15.2695 68.4694 14.9224 68.6704 14.5787C68.8357 14.2961 69.2964 14.1201 69.5814 14.3398C69.6521 14.3944 69.7187 14.4533 69.786 14.5117C69.857 14.4855 69.9352 14.4682 70.0249 14.4682C70.1937 14.4682 70.328 14.5206 70.4303 14.6034C70.6359 14.459 70.8975 14.3712 71.2188 14.3753C71.8182 14.3829 72.4111 14.4496 72.9979 14.5548C72.1964 13.9077 71.2873 13.2976 70.2466 12.735Z" fill="#F68CB6"/>
<path d="M75.1056 23.2158C75.2927 22.2475 77.1176 22.6932 77.7742 22.918C78.0295 23.0057 78.2708 23.0874 78.4987 23.1744C78.0646 21.7655 77.5233 20.3621 76.7664 19.0152C76.2876 19.096 75.7916 19.0954 75.2243 18.9832C74.2109 18.7831 73.2769 18.7279 72.3297 18.3982C72.2321 18.4212 72.1346 18.4453 72.0388 18.4716C73.3265 19.8421 74.2944 21.5118 75.0335 23.2749C75.0554 23.2538 75.0794 23.234 75.1056 23.2158Z" fill="#F68CB6"/>
<path d="M79.51 27.064C79.4712 26.8983 79.4321 26.7321 79.3925 26.5653C78.759 26.4222 78.1382 25.9041 77.5776 25.5948C76.8857 25.213 76.2279 24.7556 75.4915 24.4639C76.187 26.4106 76.639 28.4135 76.9545 30.2128C77.7589 34.7967 78.0669 41.2666 75.8526 50.1638C76.0204 50.148 76.1894 50.1372 76.3612 50.1372C77.3032 50.1372 78.0025 50.3768 78.5222 50.708C80.9103 42.7565 81.3831 35.0288 79.51 27.064Z" fill="#F68CB6"/>
<path d="M76.2554 54.1503C76.1922 54.0038 76.1047 53.8968 75.9795 53.8136C75.8622 53.7356 75.6702 53.6943 75.4249 53.6943C75.2162 53.6943 75.0276 53.7241 74.8518 53.7781C74.6395 54.4735 74.4135 55.1817 74.1711 55.9039C73.3623 58.3126 72.492 60.5954 71.5983 62.7358L70.9269 64.308C69.4492 67.6913 67.9332 70.6781 66.5426 73.1934C67.129 73.1815 67.714 73.1435 68.2999 73.1323C70.5075 69.5437 73.1007 64.5975 75.9241 57.8239L76.2637 56.0872C76.3423 55.6721 76.3826 55.2707 76.3826 54.9001C76.3826 54.5993 76.3397 54.3469 76.2554 54.1503Z" fill="#F68CB6"/>
<path d="M112.845 75.6173C112.187 76.0567 111.538 76.508 110.896 76.9709C109.613 77.8964 108.363 78.8676 107.149 79.8824C104.854 81.8019 102.91 84.1406 100.608 86.025C100.575 86.052 100.56 86.0647 100.554 86.0703C100.548 86.0744 100.535 86.0835 100.505 86.1047C100.448 86.1459 100.39 86.1872 100.332 86.2277C100.173 86.3389 100.011 86.4469 99.8484 86.5537C98.7909 87.2511 97.7071 87.9107 96.6153 88.5527C97.1469 87.9915 97.6547 87.4083 98.1269 86.7999C98.4365 86.4011 98.7268 85.9993 98.9525 85.5471C99.4404 84.5698 100.12 83.7048 100.64 82.7453C101.149 81.807 101.58 80.8293 102.095 79.8935C102.283 79.5524 102.482 79.218 102.682 78.8837C103.626 78.3286 104.57 77.7733 105.514 77.218C107.684 75.9418 109.949 74.6343 112.457 74.4256C113.156 74.3673 113.862 74.3969 114.553 74.5135C114.231 74.4592 113.135 75.4237 112.845 75.6173ZM94.8647 89.0323C94.4218 89.4498 93.9629 89.8519 93.4884 90.2339C93.4004 90.2813 93.3407 90.33 93.3068 90.3782C93.0268 90.598 92.7428 90.8127 92.4495 91.0143C92.3761 91.0646 92.3015 91.115 92.2268 91.165C92.6564 90.536 92.9619 89.8613 93.2379 89.1297C93.6225 88.1105 93.9753 87.076 94.4336 86.0865C94.8849 85.1115 95.4194 84.1832 95.8404 83.1919C96.7124 81.1386 97.3764 79.0007 98.0866 76.8879C98.1109 76.8161 98.134 76.7438 98.158 76.6716C98.8845 76.3772 99.5187 75.8941 100.129 75.41C100.862 74.8281 101.558 74.2015 102.276 73.6004C103.562 72.5224 105.416 71.361 107.156 71.7894C104.413 74.4765 102.171 77.617 100.486 81.0691C100.001 82.061 99.4608 82.9921 98.8658 83.9207C98.4829 84.5183 98.1964 85.1719 97.7942 85.7551C96.9661 86.9558 95.9227 88.0348 94.8647 89.0323ZM70.2335 79.0561C69.0895 79.4239 67.9168 79.7336 66.7225 79.8838C66.159 79.9547 65.5115 80.0587 64.9597 79.8777C64.5055 79.7289 64.1085 79.2559 64.4534 78.8091C65.1007 77.9711 66.2168 77.4507 67.2332 77.2565C68.4411 77.0257 69.6262 77.3517 70.7451 77.7956C71.2202 77.984 71.6906 78.182 72.1613 78.3797C71.5231 78.6172 70.882 78.8475 70.2335 79.0561ZM115.223 74.0875L115.217 74.0751C115.041 73.6652 114.517 73.5454 114.069 73.5154C110.371 73.2677 106.933 75.2498 103.759 77.1635C105.364 75.1986 106.97 73.2336 108.575 71.2686C106.781 70.6018 104.728 71.0104 103.042 71.9177C101.356 72.825 99.9656 74.1856 98.6002 75.5277C99.4722 72.8182 101.005 70.3238 103.028 68.3218C100.059 67.2123 96.6304 68.696 94.4989 71.0419C92.3678 73.3877 91.2347 76.4447 90.0685 79.3917C89.9099 79.7924 89.7347 80.2129 89.3907 80.4724C88.9858 80.7781 88.4388 80.7941 87.9314 80.7878C83.3992 80.7315 78.8775 79.8974 74.6232 78.3327C80.4109 76.9418 86.4778 75.4046 90.8235 71.3371C91.303 70.8884 91.7943 70.238 91.5313 69.6362C91.329 69.173 90.7643 68.9899 90.2594 68.9667C88.6094 68.8909 87.1475 69.9218 85.6645 70.6487C77.8817 74.4633 67.5103 70.3516 60.4497 75.3788C58.3733 76.8573 56.6813 79.082 54.1977 79.6558C52.8029 79.9779 51.3412 79.7207 49.957 79.3565C44.0286 77.7974 38.8008 74.3536 33.6929 70.9646C33.2121 71.0698 33.5325 71.809 33.9279 72.1023C38.0281 75.1441 42.5463 77.622 47.3154 79.4442C49.9749 80.4602 52.996 81.2629 55.6073 80.1285C57.4969 79.3076 58.8367 77.6073 60.4904 76.3783C63.9371 73.8169 68.5037 73.4505 72.7976 73.3971C77.0912 73.3439 81.5629 73.4732 85.4556 71.6601C87.1835 70.8553 88.9426 69.65 90.8153 70.0056C86.8557 74.3413 80.7829 75.9053 75.0706 77.2639C74.341 77.4375 73.5918 77.6123 72.8476 77.5184C72.1986 77.4367 71.5946 77.156 70.9814 76.929C68.8758 76.15 66.333 76.0536 64.548 77.4153C63.7706 78.0084 63.1663 79.087 63.636 79.9446C64.0836 80.7617 65.1997 80.8765 66.1293 80.812C67.7903 80.6971 69.4338 80.3307 70.9863 79.7292C71.7208 79.4446 72.458 79.1029 73.2452 79.084C73.9639 79.0667 74.6578 79.3212 75.3383 79.5533C79.5993 81.007 84.1147 81.7108 88.6161 81.6231C87.9016 84.2959 85.1466 86.0138 82.4056 86.3885C79.6646 86.7631 76.9037 86.0705 74.2153 85.4177C71.5267 84.7649 68.7348 84.1438 66.0168 84.6594C63.2085 85.1921 60.6642 86.9852 59.2182 89.4506C59.8315 89.5901 60.3715 89.0645 60.8173 88.6209C62.8786 86.5695 65.7527 85.3584 68.6606 85.3156C74.0428 85.2365 79.5087 88.9224 84.4952 86.8956C87.1874 85.8012 89.0013 83.2488 90.2892 80.6437C91.5772 78.0386 92.5091 75.2314 94.1975 72.8662C95.8862 70.501 98.5976 68.5792 101.49 68.8589C99.0708 70.9749 98.0337 74.2138 97.0001 77.2574C95.9623 80.314 94.8241 83.3367 93.5883 86.3188C92.7518 88.3373 91.8282 90.3979 90.2265 91.8839C88.5601 93.4296 86.3201 94.1981 84.1011 94.6892C78.3636 95.9586 72.396 95.6368 66.558 94.9684C62.8439 94.5432 53.7258 92.7377 50.1965 91.5025C38.2702 87.3282 31.2631 83.1354 29.531 82.1684C26.0543 80.2275 22.556 78.163 19.1306 76.074C15.867 74.0836 12.7238 71.7403 8.90887 70.9523C6.07948 70.3678 2.60018 70.4739 0 71.9124C0.397789 71.6923 1.03631 71.6741 1.47246 71.6245C2.86593 71.4661 4.28579 71.5527 5.66471 71.7917C9.26043 72.4146 12.5728 74.1982 15.5864 76.1865C18.8359 78.3307 22.168 80.3493 25.5727 82.2372C30.7626 85.1149 36.1273 87.7824 41.6725 89.8919C45.2043 91.2356 48.8111 92.3822 52.4706 93.3246C56.1297 94.267 59.8417 95.0052 63.5834 95.532C65.3981 95.7875 67.2199 95.9932 69.046 96.1483C74.837 96.6402 80.7759 96.6155 86.3254 94.8891C97.2566 91.489 105.081 82.1317 114.415 75.5033C114.895 75.1622 115.445 74.6331 115.223 74.0875Z" fill="#DD1B6A"/>
<path d="M56.6366 67.2583C56.6927 67.2333 56.6945 67.2355 56.6366 67.2583V67.2583Z" fill="#DD1B6A"/>
<path d="M65.5242 33.4645V40.7817H63.133V33.4645H55.7212V31.1149H63.133V23.7975H65.5242V31.1149H72.9357V33.4645H65.5242Z" fill="#DD1B6A"/>
<path d="M68.497 1.46831C69.2242 1.77938 69.957 2.07743 70.695 2.36228C72.1708 2.93198 73.6671 3.44878 75.1798 3.91175C78.0415 4.78737 81.0622 5.13922 83.8974 6.03864C83.9379 6.05153 83.9567 6.05713 83.9649 6.05925C83.9717 6.06229 83.9867 6.06851 84.0204 6.08155C84.0865 6.10717 84.1522 6.13279 84.2179 6.15932C84.3981 6.23223 84.5769 6.30878 84.7551 6.3864C85.9167 6.89182 87.0609 7.4397 88.1949 8.00394C87.4348 7.86507 86.6689 7.7579 85.9015 7.69438C85.3981 7.65284 84.9031 7.62889 84.4009 7.68665C83.3159 7.81157 82.2198 7.71424 81.1321 7.80231C80.0682 7.88828 79.0136 8.06078 77.9486 8.14037C77.5602 8.16933 77.1712 8.18465 76.7819 8.19965C75.8014 7.71197 74.821 7.22428 73.8403 6.73644C71.5869 5.61554 69.2547 4.43172 67.7104 2.44428C67.2802 1.8905 66.9195 1.28275 66.6395 0.639679C66.77 0.939537 68.1765 1.33126 68.497 1.46831ZM89.5526 9.20882C90.1444 9.35194 90.7315 9.51702 91.3108 9.70591C91.3984 9.75381 91.4719 9.77731 91.5309 9.77944C91.8679 9.89389 92.2028 10.0146 92.5319 10.1504C92.6139 10.1842 92.6968 10.2194 92.7798 10.2545C92.0181 10.238 91.2861 10.3505 90.5223 10.5186C89.4583 10.7528 88.3992 11.0219 87.32 11.1784C86.2566 11.3324 85.1872 11.3914 84.1268 11.5799C81.9304 11.9705 79.7767 12.5811 77.6189 13.1396C77.5454 13.1587 77.4721 13.1785 77.3988 13.1978C76.7552 12.75 76.0042 12.4824 75.2657 12.2356C74.3778 11.9389 73.4727 11.6974 72.5775 11.4247C70.972 10.9355 68.987 10.0165 68.3959 8.32471C72.1444 9.15562 75.9998 9.31965 79.8123 8.84712C80.9078 8.71129 81.9829 8.65565 83.0856 8.64732C83.7952 8.64186 84.4992 8.52513 85.2077 8.54362C86.6657 8.58183 88.1394 8.86697 89.5526 9.20882ZM94.6417 35.2919C95.5743 36.0496 96.474 36.8631 97.252 37.7816C97.6189 38.215 98.0596 38.7007 98.2092 39.2618C98.3324 39.7235 98.1529 40.3145 97.5902 40.2693C96.5348 40.1847 95.4894 39.5336 94.7717 38.788C93.919 37.9021 93.5452 36.7312 93.3061 35.5513C93.2047 35.0504 93.1139 34.5482 93.0223 34.0461C93.5699 34.451 94.1127 34.8623 94.6417 35.2919ZM65.9173 0.31163L65.9097 0.322701C65.6628 0.694412 65.8482 1.19846 66.0677 1.59019C67.8791 4.82375 71.4166 6.62229 74.7528 8.23679C72.2302 7.96438 69.7074 7.6921 67.1846 7.41969C67.6058 9.28735 69.0688 10.7842 70.7494 11.7015C72.43 12.6188 74.3288 13.0407 76.1989 13.452C73.4526 14.2006 70.5261 14.2782 67.7442 13.6762C68.4356 16.7693 71.5505 18.832 74.6794 19.337C77.8085 19.842 80.9881 19.1222 84.094 18.4905C84.5164 18.4047 84.9642 18.3219 85.3696 18.4682C85.8466 18.6407 86.1588 19.0902 86.4304 19.5188C88.8577 23.3467 90.6272 27.5905 91.6388 32.0089C87.3139 27.9195 82.7137 23.6755 76.9335 22.2552C76.2956 22.0985 75.4827 22.0419 75.1219 22.5909C74.8444 23.0132 74.9991 23.5864 75.2555 24.0221C76.0928 25.4457 77.7544 26.1076 79.1734 26.9535C86.6181 31.3915 88.8355 42.3256 96.902 45.4965C99.2743 46.4291 102.062 46.632 103.899 48.3997C104.93 49.3924 105.513 50.7573 105.963 52.116C107.893 57.9341 107.862 64.1943 107.811 70.3239C108.162 70.6694 108.606 69.9972 108.636 69.5059C108.946 64.41 108.556 59.2718 107.479 54.2814C106.878 51.4984 105.901 48.5289 103.525 46.9606C101.806 45.8255 99.6498 45.6314 97.7173 44.9168C93.6898 43.4275 90.8895 39.8015 88.5006 36.233C86.1118 32.6648 83.779 28.8477 80.1346 26.5763C78.5172 25.5681 76.5468 24.7522 75.8225 22.9891C81.6166 23.9393 86.2426 28.1734 90.4993 32.2177C91.0431 32.7343 91.5984 33.2664 91.9263 33.941C92.212 34.5295 92.3065 35.1887 92.4512 35.8266C92.948 38.0161 94.2554 40.199 96.3709 40.9512C97.2922 41.2786 98.5257 41.196 98.9878 40.3343C99.4282 39.5133 98.9149 38.5155 98.3535 37.7719C97.3502 36.443 96.1461 35.2662 94.7946 34.2937C94.1553 33.8337 93.4663 33.4027 93.0206 32.7534C92.6139 32.1605 92.4484 31.4405 92.2713 30.7436C91.1628 26.38 89.2873 22.2125 86.7565 18.4893C89.3858 17.6287 92.3292 18.9988 94.1394 21.0908C95.9499 23.1828 96.8768 25.874 97.7976 28.4828C98.7184 31.0916 99.7224 33.7699 101.638 35.7657C103.618 37.8277 106.509 38.9804 109.364 38.846C109.146 38.2559 108.411 38.0904 107.796 37.9591C104.952 37.352 102.368 35.6051 100.745 33.1923C97.74 28.7261 97.8443 22.1346 93.4236 19.0632C91.0368 17.405 87.9084 17.2789 85.0226 17.622C82.1368 17.9652 79.276 18.717 76.3725 18.5936C73.4691 18.4702 70.3786 17.2475 69.0338 14.6713C72.1276 15.5433 75.4074 14.6439 78.5215 13.8481C81.6491 13.0489 84.8027 12.3523 87.9761 11.7597C90.1238 11.3586 92.3545 11.0072 94.4738 11.5381C96.6787 12.0904 98.5456 13.5472 100.169 15.1387C104.364 19.2524 107.353 24.4279 109.98 29.6841C111.651 33.028 115.116 41.6531 116.008 45.2844C119.022 57.5552 119.335 65.7151 119.47 67.6942C119.742 71.6666 119.923 75.7245 120.042 79.735C120.156 83.5562 119.909 87.4689 121.332 91.0952C122.387 93.7848 124.375 96.642 127 98.0352C126.599 97.822 126.235 97.297 125.955 96.9587C125.061 95.8775 124.359 94.6408 123.806 93.3549C122.365 90.0024 122.051 86.2535 122.072 82.6431C122.094 78.75 121.966 74.856 121.689 70.9729C121.267 65.0537 120.573 59.1027 119.313 53.3051C118.51 49.6125 117.502 45.9646 116.294 42.3842C115.086 38.804 113.677 35.2912 112.076 31.8686C111.299 30.2087 110.477 28.5701 109.61 26.9555C106.861 21.835 103.598 16.8728 99.1216 13.1656C90.3049 5.8637 78.1934 4.41656 67.5445 0.215515C66.9964 -0.000808716 66.2529 -0.172569 65.9173 0.31163Z" fill="#DD1B6A"/>
<path d="M40.2696 63.447C39.9186 63.447 39.642 63.3811 39.4406 63.2497C39.2386 63.1182 39.0925 62.9209 39.0015 62.6574C38.9103 62.3945 38.8651 62.0692 38.8651 61.682C38.8651 61.2953 38.8845 60.8384 38.9236 60.3119C38.273 61.3494 37.4895 62.1814 36.5727 62.8084C35.6558 63.4354 34.6248 63.749 33.4804 63.749C32.4397 63.749 31.5554 63.5168 30.8272 63.0523C30.0986 62.5876 29.5298 61.9608 29.12 61.1711C28.7104 60.3813 28.4568 59.4641 28.3592 58.419C28.2617 57.3739 28.3299 56.2632 28.5641 55.0863C28.7982 53.8634 29.1688 52.7172 29.6762 51.649C30.1835 50.5806 30.8011 49.644 31.5295 48.8389C32.2579 48.0341 33.087 47.3989 34.0169 46.9344C34.9466 46.4699 35.9516 46.2377 37.0311 46.2377C37.7594 46.2377 38.4423 46.3694 39.0796 46.6324C39.7168 46.8959 40.2599 47.2752 40.7085 47.7704C41.1574 48.2662 41.4891 48.8736 41.7036 49.5937C41.9183 50.3136 41.9671 51.138 41.85 52.067H40.0356C40.1005 51.448 40.0518 50.8941 39.8893 50.4066C39.7265 49.9187 39.4827 49.5009 39.1577 49.1524C38.8325 48.804 38.4487 48.5371 38.0066 48.3511C37.5643 48.1654 37.1025 48.0724 36.6215 48.0724C35.8021 48.0724 35.0509 48.2739 34.3681 48.6764C33.6854 49.0792 33.0805 49.6093 32.5538 50.2672C32.0269 50.9253 31.5813 51.6724 31.2174 52.5083C30.8531 53.3443 30.5864 54.2036 30.4175 55.0863C30.2614 55.9222 30.1994 56.7509 30.2321 57.5712C30.2646 58.3921 30.4141 59.1237 30.6809 59.766C30.9474 60.4087 31.3344 60.9272 31.8416 61.3221C32.349 61.7169 32.9992 61.9143 33.7925 61.9143C34.4038 61.9143 34.9695 61.8022 35.4898 61.5774C36.0101 61.3532 36.4816 61.0356 36.9044 60.6254C37.3269 60.2153 37.7042 59.7311 38.036 59.1737C38.3674 58.6163 38.6438 58.0125 38.8651 57.3623H34.8266L35.1777 55.5971H41.1673L40.2894 60.0628C40.2111 60.4486 40.1849 60.757 40.2111 60.9884C40.2371 61.2199 40.2956 61.3973 40.3867 61.5206C40.4776 61.644 40.598 61.7252 40.7478 61.7636C40.897 61.8022 41.0628 61.8213 41.2452 61.8213L40.2696 63.447Z" fill="#DD1B6A"/>
<path d="M50.0536 53.2251C49.6699 52.84 49.1592 52.6473 48.522 52.6473C47.9628 52.6473 47.4556 52.7666 47.0005 53.0054C46.5449 53.2442 46.145 53.5639 45.8006 53.9646C45.4558 54.3652 45.1664 54.8315 44.9324 55.3627C44.6983 55.8942 44.516 56.4529 44.3862 57.0382C44.3731 57.0999 44.3631 57.1538 44.3569 57.1999C44.3501 57.2463 44.3404 57.3003 44.3277 57.3618L50.6682 54.8426C50.642 54.1495 50.4372 53.6103 50.0536 53.2251ZM50.7461 60.9383C50.382 61.5113 49.9658 61.9977 49.4976 62.3968C49.0293 62.7964 48.5154 63.1023 47.9563 63.3143C47.3969 63.5262 46.8181 63.6323 46.2199 63.6323C45.4786 63.6323 44.8411 63.4736 44.308 63.1565C43.7746 62.8392 43.3521 62.4056 43.04 61.8558C42.7279 61.3064 42.5294 60.6597 42.445 59.9165C42.3602 59.1733 42.4025 58.376 42.5717 57.5243C42.7406 56.6267 43.0138 55.7866 43.3911 55.0047C43.7681 54.2227 44.2234 53.5415 44.7568 52.9608C45.29 52.3801 45.8981 51.9236 46.581 51.5907C47.2636 51.2578 48.0018 51.0912 48.7952 51.0912C49.3543 51.0912 49.865 51.184 50.3268 51.3697C50.7881 51.5549 51.1785 51.8293 51.4973 52.1922C51.8158 52.555 52.0498 52.9992 52.1998 53.5246C52.3489 54.0501 52.3849 54.6525 52.3069 55.3323L44.1129 58.6231C44.0739 59.1023 44.0934 59.5503 44.1715 59.9678C44.2496 60.385 44.3862 60.752 44.5813 61.0682C44.7764 61.3851 45.0364 61.6322 45.3616 61.8101C45.6866 61.988 46.0835 62.0765 46.5516 62.0765C47.3322 62.0765 48.0375 61.7941 48.6683 61.2288C49.2991 60.6636 49.738 59.9165 49.9854 58.9876H51.6046C51.3963 59.7154 51.1102 60.3659 50.7461 60.9383Z" fill="#DD1B6A"/>
<path d="M59.1544 52.7403C58.6598 52.7403 58.2146 52.8487 57.818 53.0654C57.4212 53.2824 57.0669 53.5763 56.7546 53.9479C56.4424 54.3196 56.1821 54.7456 55.9743 55.2254C55.7662 55.7055 55.61 56.2087 55.506 56.735L54.2381 63.354H52.5406L54.2185 54.7145C54.2966 54.3275 54.3259 54.0176 54.3063 53.7854C54.2867 53.5531 54.2313 53.3755 54.1405 53.2513C54.0493 53.1276 53.9288 53.0464 53.7796 53.0074C53.63 52.9689 53.4575 52.9495 53.2624 52.9495L54.2381 51.3236C54.6542 51.3236 54.9824 51.3896 55.2232 51.5211C55.4637 51.6527 55.6457 51.8345 55.7695 52.0667C55.8929 52.299 55.9645 52.5661 55.984 52.8679C56.0036 53.1701 56.0066 53.4916 55.9937 53.8318C56.9953 52.005 58.3609 51.0914 60.0908 51.0914C60.1688 51.0914 60.2436 51.0914 60.3151 51.0914C60.3865 51.0914 60.4614 51.0994 60.5395 51.1144L59.1544 52.7403Z" fill="#DD1B6A"/>
<path d="M66.4896 57.3618C66.6068 56.7765 66.6553 56.2027 66.6362 55.6403C66.6165 55.0779 66.522 54.5734 66.3531 54.1263C66.184 53.6796 65.924 53.3216 65.5727 53.0519C65.2215 52.7823 64.7728 52.6473 64.2266 52.6473C63.6672 52.6473 63.1566 52.7823 62.695 53.0519C62.2332 53.3216 61.83 53.6796 61.4855 54.1263C61.1408 54.5734 60.8514 55.0779 60.6173 55.6403C60.3833 56.2027 60.2077 56.7765 60.0907 57.3618C59.9734 57.9476 59.9248 58.5252 59.9441 59.0953C59.9637 59.6655 60.0614 60.1697 60.237 60.6089C60.4125 61.0479 60.6759 61.4026 61.027 61.6723C61.3782 61.9417 61.8333 62.0765 62.3925 62.0765C62.939 62.0765 63.4395 61.9417 63.8947 61.6723C64.3499 61.4026 64.7499 61.0479 65.0947 60.6089C65.4392 60.1697 65.7289 59.6655 65.9629 59.0953C66.197 58.5252 66.3725 57.9476 66.4896 57.3618ZM68.187 57.3618C68.031 58.1826 67.7774 58.9722 67.426 59.7307C67.0749 60.4896 66.6391 61.159 66.1188 61.7396C65.5986 62.3203 65.0001 62.7811 64.3242 63.1216C63.6478 63.4619 62.8999 63.6323 62.0804 63.6323C61.2612 63.6323 60.5814 63.4619 60.0417 63.1216C59.5019 62.7811 59.0824 62.3203 58.7835 61.7396C58.4841 61.159 58.3055 60.4896 58.247 59.7307C58.1885 58.9722 58.2371 58.1826 58.3933 57.3618C58.5493 56.5414 58.8029 55.7517 59.1541 54.9928C59.5052 54.2346 59.9408 53.5646 60.4613 52.984C60.9813 52.4034 61.583 51.9429 62.2658 51.6022C62.9487 51.2617 63.6996 51.0912 64.5193 51.0912C65.3387 51.0912 66.018 51.2617 66.558 51.6022C67.0973 51.9429 67.5169 52.4034 67.8164 52.984C68.1153 53.5646 68.291 54.2346 68.343 54.9928C68.3948 55.7517 68.343 56.5414 68.187 57.3618Z" fill="#DD1B6A"/>
<path d="M78.1367 63.4004C77.7852 63.4004 77.4763 63.3576 77.2099 63.2729C76.9433 63.1879 76.7285 63.0407 76.5661 62.8316C76.4033 62.6224 76.2993 62.3438 76.254 61.9955C76.2082 61.647 76.2373 61.2021 76.3417 60.66L77.2001 56.2707C77.291 55.7909 77.3367 55.3341 77.3367 54.9004C77.3367 54.4671 77.2683 54.0916 77.132 53.774C76.9953 53.4569 76.7871 53.2051 76.5077 53.0192C76.2277 52.8334 75.8668 52.7404 75.4249 52.7404C74.9302 52.7404 74.4851 52.8488 74.0886 53.0656C73.6917 53.2825 73.3373 53.5765 73.0251 53.9481C72.7128 54.3198 72.4527 54.7457 72.2449 55.2255C72.0367 55.7057 71.8804 56.2088 71.7766 56.7351L70.5085 63.3542H68.811L70.4891 54.7147C70.567 54.3276 70.5964 54.0178 70.5767 53.7855C70.5571 53.5533 70.5018 53.3756 70.4108 53.2515C70.3197 53.1278 70.1992 53.0465 70.05 53.0075C69.9004 52.969 69.728 52.9496 69.5329 52.9496L70.5085 51.3238C70.9247 51.3238 71.253 51.3897 71.4935 51.5213C71.7341 51.6529 71.9162 51.8346 72.04 52.0669C72.1633 52.2991 72.2382 52.5703 72.2643 52.8799C72.2902 53.1898 72.2902 53.5148 72.2643 53.8553C72.7325 52.9263 73.3209 52.2335 74.03 51.7766C74.7388 51.32 75.5157 51.0915 76.3612 51.0915C77.4539 51.0915 78.2406 51.471 78.7218 52.2295C79.203 52.9883 79.32 54.0102 79.0732 55.2951L78.2147 59.731C78.0713 60.5207 78.0713 61.0628 78.2147 61.3569C78.3577 61.6511 78.6565 61.7903 79.112 61.7748L78.1367 63.4004Z" fill="#DD1B6A"/>
<path d="M78.1367 63.4004C77.7852 63.4004 77.4763 63.3576 77.2099 63.2729C76.9433 63.1879 76.7285 63.0407 76.5661 62.8316C76.4033 62.6224 76.2993 62.3438 76.254 61.9955C76.2082 61.647 76.2373 61.2021 76.3417 60.66L77.2001 56.2707C77.291 55.7909 77.3367 55.3341 77.3367 54.9004C77.3367 54.4671 77.2683 54.0916 77.132 53.774C76.9953 53.4569 76.7871 53.2051 76.5077 53.0192C76.2277 52.8334 75.8668 52.7404 75.4249 52.7404C74.9302 52.7404 74.4851 52.8488 74.0886 53.0656C73.6917 53.2825 73.3373 53.5765 73.0251 53.9481C72.7128 54.3198 72.4527 54.7457 72.2449 55.2255C72.0367 55.7057 71.8804 56.2088 71.7766 56.7351L70.5085 63.3542H68.811L70.4891 54.7147C70.567 54.3276 70.5964 54.0178 70.5767 53.7855C70.5571 53.5533 70.5018 53.3756 70.4108 53.2515C70.3197 53.1278 70.1992 53.0465 70.05 53.0075C69.9004 52.969 69.728 52.9496 69.5329 52.9496L70.5085 51.3238C70.9247 51.3238 71.253 51.3897 71.4935 51.5213C71.7341 51.6529 71.9162 51.8346 72.04 52.0669C72.1633 52.2991 72.2382 52.5703 72.2643 52.8799C72.2902 53.1898 72.2902 53.5148 72.2643 53.8553C72.7325 52.9263 73.3209 52.2335 74.03 51.7766C74.7388 51.32 75.5157 51.0915 76.3612 51.0915C77.4539 51.0915 78.2406 51.471 78.7218 52.2295C79.203 52.9883 79.32 54.0102 79.0732 55.2951L78.2147 59.731C78.0713 60.5207 78.0713 61.0628 78.2147 61.3569C78.3577 61.6511 78.6565 61.7903 79.112 61.7748L78.1367 63.4004Z" fill="#DD1B6A"/>
<path d="M81.9211 63.4004C81.6217 63.4004 81.339 63.3657 81.0723 63.2959C80.8056 63.2265 80.5846 63.091 80.4091 62.8897C80.2335 62.6886 80.1165 62.4099 80.0581 62.0535C79.9993 61.6975 80.0287 61.2332 80.1459 60.66L81.687 52.7171H80.6336L80.887 51.3703H81.9406L82.5064 48.56L84.3403 47.8169L83.6378 51.3703H84.6914L84.4182 52.7171H83.3647L81.96 60.0098C81.8821 60.3968 81.8527 60.7064 81.8721 60.9386C81.8917 61.171 81.947 61.3493 82.0381 61.473C82.1291 61.597 82.2494 61.6784 82.3991 61.7168C82.5482 61.7557 82.7142 61.7748 82.8965 61.7748L81.9211 63.4004Z" fill="#DD1B6A"/>
<path d="M92.3389 57.3618C92.4562 56.7765 92.5047 56.2027 92.4853 55.6403C92.4658 55.0779 92.3713 54.5734 92.2024 54.1263C92.0333 53.6796 91.7733 53.3216 91.422 53.0519C91.0709 52.7823 90.6222 52.6473 90.076 52.6473C89.5165 52.6473 89.006 52.7823 88.5444 53.0519C88.0825 53.3216 87.6793 53.6796 87.335 54.1263C86.9901 54.5734 86.7007 55.0779 86.4666 55.6403C86.2326 56.2027 86.057 56.7765 85.94 57.3618C85.8228 57.9476 85.7741 58.5252 85.7936 59.0953C85.8131 59.6655 85.9107 60.1697 86.0863 60.6089C86.2618 61.0479 86.5252 61.4026 86.8763 61.6723C87.2277 61.9417 87.6827 62.0765 88.242 62.0765C88.7883 62.0765 89.2888 61.9417 89.7442 61.6723C90.1993 61.4026 90.5993 61.0479 90.944 60.6089C91.2886 60.1697 91.5782 59.6655 91.8122 59.0953C92.0463 58.5252 92.2218 57.9476 92.3389 57.3618ZM94.0363 57.3618C93.8803 58.1826 93.6267 58.9722 93.2753 59.7307C92.9243 60.4896 92.4884 61.159 91.9682 61.7396C91.4478 62.3203 90.8495 62.7811 90.1733 63.1216C89.4971 63.4619 88.7492 63.6323 87.9297 63.6323C87.1105 63.6323 86.4307 63.4619 85.8912 63.1216C85.3513 62.7811 84.9317 62.3203 84.6328 61.7396C84.3334 61.159 84.1548 60.4896 84.0963 59.7307C84.0379 58.9722 84.0864 58.1826 84.2426 57.3618C84.3986 56.5414 84.6522 55.7517 85.0036 54.9928C85.3547 54.2346 85.7902 53.5646 86.3108 52.984C86.8306 52.4034 87.4323 51.9429 88.1153 51.6022C88.798 51.2617 89.549 51.0912 90.3684 51.0912C91.188 51.0912 91.8674 51.2617 92.4074 51.6022C92.9468 51.9429 93.3664 52.4034 93.6655 52.984C93.9648 53.5646 94.1403 54.2346 94.1925 54.9928C94.2443 55.7517 94.1925 56.5414 94.0363 57.3618Z" fill="#DD1B6A"/>
</svg>
